<svg xmlns="http://www.w3.org/2000/svg" viewBox="0 0 512 512">
  <defs>
    <linearGradient id="grad1" x1="0%" y1="0%" x2="100%" y2="100%">
      <stop offset="0%" style="stop-color:#FCD34D;stop-opacity:1" />
      <stop offset="100%" style="stop-color:#F59E0B;stop-opacity:1" />
    </linearGradient>
  </defs>
  <circle cx="256" cy="256" r="240" fill="url(#grad1)" />
  <path d="M344.8 288c0-10.4-5-20.2-13.6-26.6-8.6-6.4-19.6-8.2-29.6-4.6l-50.6 18c-7.6 2.6-16.2 2.6-23.8 0l-50.6-18c-10-3.6-21-1.8-29.6 4.6-8.6 6.4-13.6 16.2-13.6 26.6 0 16.4 12.2 30.6 28.4 33 1.2.2 2.4.4 3.6.4h.4c3.4.6 6.8 2 9.6 4.2 8.4 6.4 13.6 16.2 13.6 26.6 0 20.4 16.6 37 37 37s37-16.6 37-37c0-10.4 5.2-20.2 13.6-26.6 2.8-2.2 6.2-3.6 9.6-4.2h.4c1.2-.2 2.4-.4 3.6-.4 16.2-2.4 28.4-16.6 28.4-33zM167.6 156.6c-18.4 0-33.4 15-33.4 33.4 0 18.4 15 33.4 33.4 33.4 18.4 0 33.4-15 33.4-33.4 0-18.4-15-33.4-33.4-33.4zm176.8 0c-18.4 0-33.4 15-33.4 33.4 0 18.4 15 33.4 33.4 33.4 18.4 0 33.4-15 33.4-33.4 0-18.4-15.2-33.4-33.4-33.4zM122.4 220c-15.6 0-28.2 12.6-28.2 28.2 0 15.6 12.6 28.2 28.2 28.2 15.6 0 28.2-12.6 28.2-28.2 0-15.6-12.6-28.2-28.2-28.2zm267.2 0c-15.6 0-28.2 12.6-28.2 28.2 0 15.6 12.6 28.2 28.2 28.2 15.6 0 28.2-12.6 28.2-28.2 0-15.6-12.6-28.2-28.2-28.2z" fill="#3D3D3D"/>
</svg>
