<svg width="512" height="512" viewBox="0 0 512 512" xmlns="http://www.w3.org/2000/svg">
    <defs>
        <linearGradient id="pawGradient" x1="0%" y1="0%" x2="100%" y2="100%">
            <stop offset="0%" style="stop-color:#FF9F43;stop-opacity:1" />
            <stop offset="100%" style="stop-color:#EE5A24;stop-opacity:1" />
        </linearGradient>
    </defs>
    <g fill="url(#pawGradient)">
        <path d="M176.5 237c-33.8 0-61.6-26-61.6-58.4 0-32.3 27.8-58.4 61.6-58.4 33.9 0 61.6 26.1 61.6 58.4 0 32.3-27.7 58.4-61.6 58.4zM335.5 237c-33.8 0-61.6-26-61.6-58.4 0-32.3 27.8-58.4 61.6-58.4 33.9 0 61.6 26.1 61.6 58.4 0 32.3-27.7 58.4-61.6 58.4zM90.9 335.8c-32.5 0-59.2-25.1-59.2-56.3 0-31.2 26.7-56.3 59.2-56.3 32.5 0 59.2 25.1 59.2 56.3 0 31.2-26.7 56.3-59.2 56.3zM421.1 335.8c-32.5 0-59.2-25.1-59.2-56.3 0-31.2 26.7-56.3 59.2-56.3 32.5 0 59.2 25.1 59.2 56.3 0 31.2-26.7 56.3-59.2 56.3zM256 502c-85 0-155-52.6-155-132.3 0-26.6 20.9-48.4 51-48.4 20.3 0 37.7 12.1 46.9 29.5 8.9 16.9 28.5 27.3 49.3 27.3l15.6 0c20.8 0 40.5-10.4 49.3-27.3 9.2-17.4 26.6-29.5 46.9-29.5 30.1 0 51 21.8 51 48.4 0 79.7-70 132.3-155 132.3z"/>
    </g>
</svg>
